<svg width="85" height="25" viewBox="0 0 85 25" fill="none" xmlns="http://www.w3.org/2000/svg">
<path d="M3.25 3.98438C2.96875 3.31771 2.65625 2.86979 2.3125 2.64062C1.96875 2.40104 1.29688 2.28125 0.296875 2.28125V0.5625H10.1094V2.28125C8.72396 2.28125 7.90625 2.38021 7.65625 2.57812C7.40625 2.76562 7.28646 2.96875 7.29688 3.1875C7.31771 3.39583 7.39062 3.66146 7.51562 3.98438L13.375 19.4062L19.2812 3.98438C19.5208 3.35938 19.4479 2.92188 19.0625 2.67188C18.6771 2.41146 17.776 2.28125 16.3594 2.28125V0.5625H24.9062V2.28125C24.0417 2.28125 23.3906 2.41146 22.9531 2.67188C22.5156 2.93229 22.1719 3.36979 21.9219 3.98438L13.7969 24H11.75L3.25 3.98438ZM31.4044 4.95312C30.7273 4.95312 30.1492 4.72917 29.67 4.28125C29.2013 3.82292 28.9669 3.26562 28.9669 2.60938C28.9669 1.94271 29.2065 1.38021 29.6856 0.921875C30.1648 0.453125 30.7377 0.21875 31.4044 0.21875C32.071 0.21875 32.644 0.453125 33.1231 0.921875C33.6023 1.38021 33.8419 1.94271 33.8419 2.60938C33.8419 3.26562 33.6023 3.82292 33.1231 4.28125C32.6544 4.72917 32.0815 4.95312 31.4044 4.95312ZM27.42 22.2812C28.3888 22.2812 28.9929 22.1927 29.2325 22.0156C29.4825 21.8281 29.6335 21.6302 29.6856 21.4219C29.7377 21.2135 29.7638 20.9531 29.7638 20.6406V12.0312C29.7638 11.2812 29.696 10.7917 29.5606 10.5625C29.4356 10.3333 29.0867 10.2188 28.5138 10.2188H27.3888V8.5C28.4096 8.5 29.2117 8.42708 29.795 8.28125C30.3783 8.125 30.7898 8.01562 31.0294 7.95312C31.269 7.88021 31.5294 7.84375 31.8106 7.84375C32.3523 7.84375 32.7065 8.00521 32.8731 8.32812C33.0502 8.64062 33.1388 9.14583 33.1388 9.84375V20.6406C33.1388 21.2969 33.2429 21.7083 33.4513 21.875C33.8054 22.1458 34.4773 22.2812 35.4669 22.2812V24H27.42V22.2812ZM48.4963 10.2344C47.965 9.70312 47.0952 9.4375 45.8869 9.4375C44.6785 9.4375 43.8608 9.875 43.4338 10.75C43.3192 11 43.2619 11.2865 43.2619 11.6094C43.2619 11.9219 43.3869 12.2292 43.6369 12.5312C43.8869 12.8229 44.2098 13.1042 44.6056 13.375C45.0015 13.6354 45.4442 13.8906 45.9338 14.1406C46.4338 14.3906 46.9494 14.6615 47.4806 14.9531C48.0119 15.2448 48.5744 15.5521 49.1681 15.875C51.3452 17.0625 52.4338 18.3802 52.4338 19.8281C52.4338 21.2656 51.8713 22.375 50.7463 23.1562C49.6213 23.9271 48.1265 24.3125 46.2619 24.3125C44.4077 24.3125 42.8765 23.9792 41.6681 23.3125C40.4598 22.6458 39.8556 21.7865 39.8556 20.7344C39.8556 20.1615 40.0431 19.6771 40.4181 19.2812C40.8035 18.8854 41.2879 18.6875 41.8713 18.6875C42.465 18.6875 42.9546 18.875 43.34 19.25C43.7254 19.6146 43.9181 20.0521 43.9181 20.5625C43.9181 21.0729 43.741 21.5052 43.3869 21.8594C44.2202 22.3385 45.2515 22.5781 46.4806 22.5781C47.7202 22.5781 48.59 22.2917 49.09 21.7188C49.2983 21.4896 49.4025 21.1927 49.4025 20.8281C49.4025 19.9635 48.4442 19.0625 46.5275 18.125C45.1942 17.4688 44.1942 16.9531 43.5275 16.5781C41.3921 15.3698 40.3244 13.9115 40.3244 12.2031C40.3244 10.8906 40.866 9.83854 41.9494 9.04688C43.0431 8.25521 44.4338 7.85938 46.1213 7.85938C47.8088 7.85938 49.2254 8.17708 50.3713 8.8125C51.5275 9.4375 52.1056 10.25 52.1056 11.25C52.1056 11.8333 51.965 12.2656 51.6838 12.5469C51.1942 13.0365 50.7254 13.2812 50.2775 13.2812C49.5483 13.2812 48.9963 13.099 48.6213 12.7344C48.2567 12.3594 48.0744 11.9323 48.0744 11.4531C48.0744 10.974 48.215 10.5677 48.4963 10.2344ZM60.9319 4.95312C60.2548 4.95312 59.6767 4.72917 59.1975 4.28125C58.7287 3.82292 58.4944 3.26562 58.4944 2.60938C58.4944 1.94271 58.734 1.38021 59.2131 0.921875C59.6923 0.453125 60.2652 0.21875 60.9319 0.21875C61.5985 0.21875 62.1715 0.453125 62.6506 0.921875C63.1298 1.38021 63.3694 1.94271 63.3694 2.60938C63.3694 3.26562 63.1298 3.82292 62.6506 4.28125C62.1819 4.72917 61.609 4.95312 60.9319 4.95312ZM56.9475 22.2812C57.9162 22.2812 58.5204 22.1927 58.76 22.0156C59.01 21.8281 59.161 21.6302 59.2131 21.4219C59.2652 21.2135 59.2912 20.9531 59.2912 20.6406V12.0312C59.2912 11.2812 59.2235 10.7917 59.0881 10.5625C58.9631 10.3333 58.6142 10.2188 58.0412 10.2188H56.9162V8.5C57.9371 8.5 58.7392 8.42708 59.3225 8.28125C59.9058 8.125 60.3173 8.01562 60.5569 7.95312C60.7965 7.88021 61.0569 7.84375 61.3381 7.84375C61.8798 7.84375 62.234 8.00521 62.4006 8.32812C62.5777 8.64062 62.6662 9.14583 62.6662 9.84375V20.6406C62.6662 21.2969 62.7704 21.7083 62.9787 21.875C63.3329 22.1458 64.0048 22.2812 64.9944 22.2812V24H56.9475V22.2812ZM69.4613 16C69.4613 14.75 69.654 13.599 70.0394 12.5469C70.4352 11.4844 70.9821 10.6042 71.68 9.90625C73.055 8.53125 74.8831 7.84375 77.1644 7.84375C79.4665 7.84375 81.3206 8.53646 82.7269 9.92188C84.1435 11.2969 84.8519 13.2552 84.8519 15.7969C84.8519 18.3281 84.2008 20.3802 82.8988 21.9531C81.5967 23.526 79.6852 24.3125 77.1644 24.3125C74.6435 24.3125 72.7269 23.5521 71.4144 22.0312C70.1123 20.5 69.4613 18.4896 69.4613 16ZM77.1644 22.4375C78.3727 22.4375 79.3519 21.8854 80.1019 20.7812C80.8623 19.6771 81.2425 18.125 81.2425 16.125C81.2425 12.9062 80.43 10.8958 78.805 10.0938C78.305 9.84375 77.7581 9.71875 77.1644 9.71875C75.2373 9.71875 73.9821 10.8854 73.3988 13.2188C73.1904 14.0208 73.0863 14.9583 73.0863 16.0312C73.0863 18.0938 73.4613 19.6771 74.2113 20.7812C74.9717 21.8854 75.956 22.4375 77.1644 22.4375Z" fill="url(#paint0_linear_316_3)"/>
<defs>
<linearGradient id="paint0_linear_316_3" x1="-70.9346" y1="13" x2="109.907" y2="13" gradientUnits="userSpaceOnUse">
<stop stop-color="#5100D6"/>
<stop offset="1" stop-color="#A168FF"/>
</linearGradient>
</defs>
</svg>
